<?xml version="1.0" encoding="UTF-8" standalone="no"?>
<svg width="520px" height="180px" viewBox="0 0 520 180" version="1.1" xmlns="http://www.w3.org/2000/svg" xmlns:xlink="http://www.w3.org/1999/xlink" xmlns:sketch="http://www.bohemiancoding.com/sketch/ns">
    <!-- Generator: Sketch 3.2.2 (9983) - http://www.bohemiancoding.com/sketch -->
    <title>Artboard 3</title>
    <desc>Created with Sketch.</desc>
    <defs></defs>
    <g id="Page-1" stroke="none" stroke-width="1" fill="none" fill-rule="evenodd" sketch:type="MSPage">
        <g id="Artboard-3" sketch:type="MSArtboardGroup" fill="#000000">
            <g id="Imported-Layers" sketch:type="MSLayerGroup" transform="translate(10.000000, 0.000000)">
                <path d="M205.331645,123.441697 C204.633569,124.777132 203.802526,126.063105 203.261161,127.459776 C198.797275,138.958171 194.414118,150.487184 189.947858,161.983224 C188.822389,164.880197 187.704043,167.817211 186.189171,170.518697 C184.403616,173.703013 181.948479,176.133645 177.684043,175.474171 C172.62418,174.694579 167.820754,173.147171 166.69291,167.624079 C165.826251,163.375184 165.776389,158.822461 166.203782,154.484066 C167.217654,144.186855 168.727777,133.939105 169.352246,123.19675 C168.328877,124.671145 167.079938,126.041908 166.322502,127.641132 C161.540445,137.749921 156.941218,147.9435 152.125919,158.038158 C150.169408,162.138671 147.989701,166.159105 145.603422,170.028803 C143.181526,173.955026 140.068678,176.790763 134.726261,176.077118 C128.992066,175.311658 126.373095,171.785829 125.055299,166.736145 C124.860597,165.994237 124.706261,165.238197 124.402336,163.923961 C121.821355,165.311211 119.439825,166.531237 117.117654,167.850184 C108.294355,172.857474 98.7231185,175.332855 88.6508815,175.723829 C73.1222559,176.324421 61.8865592,168.726342 57.1472417,154.017724 C55.8318199,149.938408 53.787455,148.690118 49.8411896,148.16725 C45.0757536,147.536039 40.4195403,146.038092 35.7372085,144.834553 C32.1233602,143.906579 30.817436,141.379382 31.8336825,138.001934 C32.5293839,135.691421 33.6406066,133.392684 35.0510047,131.433105 C36.7866967,129.026026 39.002019,130.062342 41.3550569,131.042132 C44.3990474,132.313974 47.6686066,133.124184 50.9025498,133.870803 C54.5710095,134.713987 55.8840569,132.801513 56.3233223,129.3275 C57.5437678,119.6615 60.6756114,110.57725 66.1533697,102.456303 C73.2599716,91.9188553 82.7077393,85.7268684 96.1492607,86.8338421 C112.157517,88.1504342 121.025929,101.094961 116.1299,116.415947 C113.432573,124.857211 107.781483,131.181092 100.591777,135.974053 C94.8623318,139.794289 88.5464076,142.745434 82.5415308,146.169987 C81.1904929,146.940158 78.8944408,148.282658 79.029782,148.989237 C79.3835687,150.856961 80.4591754,153.541961 81.9170616,154.064829 C85.6116398,155.390842 89.8167156,156.742763 93.5635308,156.236382 C105.119773,154.674842 114.916578,148.666566 124.361972,142.264961 C125.477943,141.508921 125.822232,139.367987 126.159398,137.792316 C129.170147,123.712553 131.969573,109.588039 135.096668,95.5341842 C136.977199,87.0929211 140.816616,84.7847632 149.566308,86.2120526 C153.263261,86.8173553 154.619047,89.5023553 154.315123,92.7479079 C153.598052,100.360118 152.598427,107.948776 151.589303,115.530368 C151.119171,119.070329 150.35936,122.574961 149.730142,126.096079 C150.034066,126.227974 150.337991,126.359868 150.641915,126.491763 C151.18328,125.773408 151.805374,125.102158 152.251763,124.331987 C156.817749,116.4395 161.200905,108.438671 165.94972,100.659237 C169.767768,94.4060132 174.784891,89.3586842 182.28327,87.4556316 C188.2739,85.9364868 191.049583,87.7264868 191.569578,93.8548816 C192.391123,103.504395 189.65818,112.638105 187.07245,121.776526 C186.723412,123.013039 186.426611,124.266039 186.163052,125.52375 C186.127436,125.683908 186.443232,125.914724 186.835009,126.421105 C187.421488,125.771053 188.057829,125.241118 188.4781,124.574579 C194.936488,114.326829 201.32127,104.029618 207.850891,93.8266184 C208.874261,92.2273947 210.424749,90.8919605 211.932498,89.6813553 C215.866891,86.5229474 220.133701,84.9990921 224.922882,87.9172632 C229.412886,90.6493684 229.291791,95.1667632 228.774171,99.3873947 C227.119209,112.916026 224.991739,126.388132 223.36527,139.919118 C222.921256,143.595684 223.279791,147.455961 223.856773,151.141947 C224.516858,155.341382 226.960123,156.738053 230.956251,155.042263 C234.634209,153.483079 238.19582,151.398671 241.334787,148.949197 C242.702445,147.879908 243.307919,145.373908 243.54536,143.433171 C246.586976,118.549816 249.33654,93.6311316 252.501626,68.7666184 C254.771559,50.9466974 260.451142,34.1583816 269.122479,18.3404342 C273.645725,10.0899474 280.609863,4.96725 289.198095,1.75467105 C296.418668,-0.946815789 302.58263,1.21767105 306.262962,7.91603947 C312.491033,19.2542763 312.524275,31.3603289 309.826948,43.5723684 C306.144242,60.2570526 297.743588,74.7584079 287.961028,88.5626053 C287.357929,89.4152105 286.742957,90.2583947 286.180223,91.1321974 C286.068626,91.3064868 286.163602,91.6079605 286.163602,92.2580132 C287.186972,91.7681184 288.060754,91.3724342 288.91554,90.9390658 C294.298322,88.1998947 299.4959,88.4801711 304.494028,91.8788158 C314.416678,98.6219342 318.170616,108.243184 317.681488,119.821658 C317.301583,128.799921 314.587635,137.15875 310.771962,145.218461 C310.218725,146.386671 309.655991,147.550171 308.834445,149.267158 C310.126123,149.029276 311.016526,149.076382 311.678986,148.711316 C318.322578,145.072434 324.989915,141.461816 331.488668,137.577987 C332.538156,136.949132 333.188744,135.071987 333.366825,133.687092 C335.757853,115.144105 343.648009,99.6935789 359.235995,88.7039211 C365.84872,84.0405 373.548924,82.9076184 381.408213,84.1629737 C388.267877,85.2605263 392.579801,89.7496579 394.3891,96.2996447 C397.948336,109.194711 395.26763,120.716658 386.123787,130.655868 C379.238005,138.140895 370.559545,142.874974 361.232872,146.610421 C360.043294,147.088539 358.844218,147.547816 357.215374,148.183737 C360.173886,153.624395 364.965441,155.586329 370.312607,155.449724 C374.672019,155.339026 379.109787,154.239118 383.300616,152.915461 C386.878848,151.784934 390.143659,149.693461 393.560431,148.058908 C402.913223,143.586263 408.500204,137.375434 409.549692,126.027776 C410.625299,114.409263 414.804256,103.056895 417.836374,91.6456447 C419.09481,86.9115658 426.132555,84.1323553 430.406488,86.6383553 C431.451227,87.2507237 432.189668,89.18675 432.225284,90.5363158 C432.405739,97.1687368 432.301265,103.808224 432.298891,110.443 C432.298891,111.693645 432.298891,112.944289 433.213038,114.4705 C433.709289,113.556658 434.174673,112.626329 434.704166,111.733684 C438.277649,105.701855 441.390498,99.3190921 445.635938,93.7936447 C448.007972,90.7058947 452.044464,88.5578947 455.743791,86.8809474 C459.547592,85.1568947 462.406379,86.7749605 462.840896,90.9131579 C463.489109,97.0745263 463.213678,103.32775 463.467739,109.536224 C463.688559,114.943908 463.54372,120.452868 464.581336,125.719237 C465.62845,131.037421 469.372891,133.227816 474.589464,131.708671 C480.03873,130.121224 485.136583,127.382053 490.479,125.387145 C492.54236,124.619329 495.498498,123.502934 496.8899,124.372026 C498.559109,125.413053 499.634716,128.357132 499.805673,130.564013 C500.069232,133.990921 498.79655,137.189368 495.638588,139.30675 C488.294545,144.226895 480.527858,148.089526 471.671318,149.582763 C462.551218,151.118395 455.207175,148.155474 451.590953,139.735408 C448.91737,133.505737 447.877379,126.585974 446.122692,119.967684 C445.961232,119.362382 445.901872,118.731171 445.569455,116.802211 C444.44636,118.740592 443.731664,119.649724 443.351758,120.683684 C438.553081,133.738908 433.901616,146.845947 428.986592,159.856421 C427.390991,164.084118 425.543701,168.325947 423.095687,172.106145 C419.080564,178.309908 413.070938,178.305197 408.861114,172.183868 C407.082682,169.6025 406.244517,166.385211 404.791379,163.021895 C394.44846,171.997803 382.305739,176.800184 368.163768,176.510487 C353.299976,176.206658 342.458431,169.597789 335.095393,156.575539 C333.810839,157.249145 332.68537,157.840316 331.557526,158.429132 C314.578137,167.301408 296.307071,172.339316 277.558749,175.591934 C266.662592,177.480855 256.478758,174.400171 247.299299,168.429579 C245.205071,167.068237 243.823166,167.226039 241.693322,168.281197 C236.106341,171.050987 230.51936,174.148158 224.561972,175.780355 C214.924251,178.422961 208.119199,173.830197 206.875009,163.978132 C205.870635,156.019697 205.832645,147.919947 205.730545,139.879079 C205.661687,134.511434 206.229171,129.136724 206.511725,123.766724 C206.119948,123.658382 205.725796,123.550039 205.331645,123.441697 L205.331645,123.441697 Z M268.583488,159.62325 C278.760199,159.752789 284.850555,156.994776 288.986773,151.057158 C295.316943,141.970553 298.113995,131.753421 296.259583,120.777895 C295.34781,115.379632 293.296322,110.101487 286.797569,108.655355 C280.246578,107.195092 274.324806,109.463211 270.487763,115.316039 C268.728327,118.001039 267.111355,120.978092 266.31118,124.049355 C264.257318,131.937132 262.410028,139.902632 261.011502,147.929368 C259.380284,157.289184 261.654967,159.599697 268.583488,159.62325 L268.583488,159.62325 Z M263.998507,92.2391711 C264.473389,92.4063947 264.950645,92.5736184 265.4279,92.7408421 C267.761943,88.7463158 270.17909,84.7965395 272.415782,80.7501974 C280.467398,66.1805395 288.590246,51.6061711 292.792948,35.3807632 C293.830564,31.3673947 293.913668,26.89475 293.391299,22.7659737 C292.873678,18.6819474 290.079,18.0601579 287.550256,21.3033553 C285.00964,24.5606842 282.894043,28.1972105 280.985019,31.8690658 C274.498137,44.3331184 271.948024,58.0525263 268.536,71.4798816 C266.793185,78.3407632 265.496758,85.3146974 263.998507,92.2391711 L263.998507,92.2391711 Z M378.371346,111.580592 C378.345227,111.170776 378.418834,110.365276 378.23363,109.621013 C377.364597,106.125803 376.134654,102.696539 372.190763,101.679066 C368.443948,100.711053 365.934199,103.174658 363.949194,105.796066 C358.746867,112.666368 355.603152,120.436382 354.582156,128.983632 C354.351839,130.917303 354.292479,133.04175 357.393455,132.902789 C367.420578,132.46 378.309611,121.614013 378.371346,111.580592 L378.371346,111.580592 Z M76.3941896,132.702592 C87.1692512,133.314961 100.261735,122.285263 100.969308,112.421421 C101.218621,108.952118 100.247488,105.586447 96.9779289,103.678684 C93.9576825,101.914592 91.0371611,103.257092 88.6152654,105.098908 C79.5450284,111.988053 77.0210332,121.736487 76.3941896,132.702592 L76.3941896,132.702592 Z" id="Fill-1" sketch:type="MSShapeGroup"></path>
                <g id="Group" transform="translate(0.000000, 9.675676)" sketch:type="MSShapeGroup">
                    <path d="M1.79742654,44.8486664 C4.28105687,43.4543506 6.76706161,42.0647454 9.24831754,40.6657191 C10.4806351,39.9709164 10.4853839,39.9591401 11.2404455,41.1202849 C12.589109,43.1999822 14.3153033,44.7591664 16.8440474,45.2938112 C19.9450237,45.9485743 22.6304787,45.1901796 24.8600474,42.973877 C26.7073365,41.1367717 26.8046872,38.7791533 25.1805924,36.7583375 C23.9601469,35.2391927 22.3289289,34.212298 20.7095829,33.1783375 C18.3351754,31.6591927 15.9132796,30.220127 13.6979573,28.4607454 C6.88340758,23.0459954 7.6408436,15.2335875 12.0168768,9.92482432 C15.6948341,5.4639559 20.5386256,3.09456117 26.2751943,2.36678485 C28.5498768,2.07944275 30.8649242,2.14067959 32.990019,2.67767959 C36.3260616,3.52557432 39.4792749,4.9976138 41.6494834,7.90400853 C41.7539573,8.04532432 41.8892986,8.16779801 41.9842749,8.31617959 C42.2668294,8.76132432 42.6633555,9.18527169 42.7797014,9.67281117 C42.9316635,10.306377 42.1576066,10.2757585 41.8299384,10.574877 C39.8164408,12.4214033 37.4396588,13.8251401 35.4522796,15.6975743 C34.9655261,16.1568506 34.6900948,15.721127 34.5333839,15.5327059 C33.2108389,13.9452585 31.5606256,12.7534954 29.6397299,12.1081533 C27.8707962,11.514627 26.0330047,11.4745875 24.1382275,12.0893112 C22.7539479,12.5391664 21.7115829,13.2952059 20.8045592,14.298548 C19.8666682,15.3372191 19.8001848,16.6302585 20.1610948,17.913877 C20.7262038,19.9323375 22.2766919,21.1853375 23.9055355,22.3158638 C26.1897156,23.9009559 28.5071374,25.4365875 30.8388057,26.9510217 C32.681346,28.1498506 34.2721991,29.647798 35.5899953,31.348298 C36.7487062,32.8438901 37.394545,34.6692191 37.5346351,36.5934691 C37.7507062,39.5469691 37.0241374,42.2908506 35.5899953,44.8816401 C34.6995924,46.4879296 33.4696493,47.7809691 32.1613507,49.0481006 C28.9321564,52.1735349 24.9526493,53.812798 20.6383507,54.6159427 C17.8626682,55.1317454 15.0228768,54.9974954 12.2210758,54.4110349 C9.59735545,53.8646138 7.16596209,52.8400743 5.2593128,51.0100349 C3.88690521,49.6910875 2.70207583,48.1059954 2.15358768,46.1888112 C2.07523223,45.9085349 1.91852133,45.6518112 1.79742654,45.3856664 L1.79742654,44.8486664" id="Fill-2"></path>
                    <path d="M62.0147773,55.0186927 C59.7614645,55.2683506 57.7123507,54.0860085 55.6347441,53.0002322 C55.5563886,52.9578375 55.4994028,52.8824691 55.430545,52.8259427 C54.4048009,51.978048 54.3905545,51.9756927 54.1174976,53.2710875 C53.4004265,56.6532454 52.6857299,60.0354033 52.0066493,63.4269822 C51.9092986,63.9145217 51.7549621,64.1076533 51.2468389,64.2159954 C47.8134455,64.9414164 44.3895498,65.716298 40.9585308,66.4652717 C40.3673033,66.5948112 39.9873981,66.5759691 40.1915972,65.7351401 C40.8041943,63.1867454 41.3360616,60.6195085 41.8987962,58.0593375 C42.9197915,53.410048 43.9384123,48.7584033 44.9570332,44.1067585 C45.8664313,39.9497191 46.7805782,35.7926796 47.6781043,31.6309296 C48.3785545,28.394798 49.0172701,25.1445349 49.7604597,21.9201796 C50.2685829,19.7180085 50.8859289,17.5299691 51.0711327,15.2854033 C51.2397156,13.2363243 51.1803555,11.1613375 50.0620095,9.27948222 C49.4280427,8.21490327 49.5610095,7.88987696 50.5843791,7.2092059 C53.1249953,5.51577169 55.7605877,3.98249538 58.4151754,2.47512696 C58.8140758,2.24902169 59.0111517,2.32203485 59.3269479,2.59760064 C60.3052038,3.45256117 60.8608152,4.5501138 61.314327,5.72774538 C61.6657393,6.64158748 61.9008057,6.7428638 62.6273744,6.10223222 C64.3915592,4.54069275 66.5119052,3.65040327 68.7106066,2.99799538 C71.8543223,2.06531117 75.0597725,2.16894275 78.2177346,3.00035064 C82.344455,4.08377169 85.3765735,6.54502169 87.3829479,10.3016664 C88.0833981,11.613548 88.4490569,13.0549691 88.7126161,14.4351533 C88.9500569,15.6693112 88.8479573,17.0494954 88.7244882,18.3825743 C88.4229384,21.592798 87.7652275,24.7370743 87.1383839,27.8813506 C86.8344597,29.4028506 86.4355592,30.9267059 86.0746493,32.4482059 C85.4169384,35.2227059 84.7568531,38.006627 83.719237,40.656298 C82.7837204,43.0445349 81.2047393,45.0936138 79.4951659,47.0225743 C77.2252322,49.5803901 74.4281801,51.4693112 71.4126825,52.9696138 C69.7054834,53.8175085 67.7988341,54.3474427 65.8731896,54.6583375 C64.6741137,54.8514691 63.4845355,55.1388112 62.0147773,55.0186927 L62.0147773,55.0186927 Z M77.6407536,19.0467585 C77.7001137,14.4846138 75.0265308,11.837298 70.9021848,11.9008901 C66.7968341,11.9644822 63.0001564,14.9839296 61.7535924,19.1833638 C60.4215498,23.6701401 59.3673128,28.2275743 58.5196493,32.825048 C58.0970047,35.1049427 57.498654,37.3707059 57.5865071,39.7189033 C57.7052275,42.8160743 60.12,45.2325743 63.2304739,45.3950875 C67.8510711,45.6376796 72.1914882,42.5687717 73.6446256,37.9830743 C74.6727441,34.739877 75.3280806,31.4048243 76.0688957,28.0909691 C76.769346,24.949048 77.4151848,21.8000612 77.6407536,19.0467585 L77.6407536,19.0467585 Z" id="Fill-3"></path>
                    <path d="M139.021564,55.0493112 C136.243507,55.2283112 133.596043,54.519377 131.079171,53.5372322 C129.063299,52.7505743 127.472445,51.2243638 126.026431,49.5898112 C124.157773,47.4794954 123.302986,45.0135349 122.942076,42.2625875 C122.635777,39.9332322 123.227005,37.7239954 123.48819,35.465298 C123.813483,32.6507585 124.359597,29.8739033 124.962697,27.1088243 C125.477943,24.7464954 126.157024,22.4242059 126.852725,20.106627 C127.441578,18.147048 128.108787,16.2369296 129.134531,14.4587059 C131.176521,10.9234559 133.911839,8.03354801 137.416464,5.90439011 C140.726389,3.89535064 144.311744,2.72949538 148.203398,2.36914011 C151.264009,2.08415327 154.277133,2.34558748 157.150166,3.21703485 C160.215526,4.1473638 162.851118,5.87377169 164.529825,8.78016643 C166.481588,12.1646796 166.400858,15.685798 165.505706,19.310548 C164.961967,21.5221401 164.08581,23.6395217 162.822626,25.4813375 C161.52145,27.3773243 159.788133,28.9789033 157.779384,30.2319033 C155.217398,31.831127 152.425095,32.8768638 149.504573,33.5198506 C146.386976,34.2052322 143.195773,34.3701006 139.997445,34.2970875 C138.463578,34.2617585 136.927336,34.2735349 135.393469,34.2358506 C134.935209,34.2264296 134.733384,34.3112191 134.640782,34.8340875 C134.284621,36.8549033 133.923711,38.8474559 134.486445,40.9012454 C135.182147,43.4449296 137.347607,45.3621138 139.987948,45.569377 C143.480701,45.8425875 146.731265,45.1854691 149.623294,43.0798638 C150.444839,42.481627 151.385104,42.0482585 152.190028,41.4029164 C152.46546,41.1815217 152.743265,41.1249954 153.037692,41.6101796 C154.113299,43.3719164 155.269635,45.086548 156.440218,46.7894033 C156.760763,47.2557454 156.831995,47.4535875 156.314374,47.8798901 C155.293379,48.7230743 154.360237,49.6628243 153.310749,50.4871664 C151.653412,51.7872717 149.749137,52.5904164 147.849611,53.4076927 C145.643787,54.3568638 143.267005,54.6795349 140.911592,55.0351796 C140.294246,55.1293901 139.653156,55.0493112 139.021564,55.0493112 L139.021564,55.0493112 Z M140.244384,25.2999822 C142.701896,25.3682849 144.76763,25.2858506 146.828616,24.9773112 C151.32337,24.3037059 154.013573,21.9484427 154.825621,17.9068112 C155.485706,14.6259296 153.695403,12.0492717 150.404474,11.5428901 C145.339863,10.7656533 140.277626,13.6861796 138.446957,18.4555875 C137.668152,20.4905349 137.181398,22.612627 136.61154,24.7088112 C136.461953,25.252877 136.651905,25.3141138 137.107791,25.307048 C138.280749,25.2882059 139.453706,25.2999822 140.244384,25.2999822 L140.244384,25.2999822 Z" id="Fill-4"></path>
                    <path d="M184.966351,34.2523375 C183.762526,34.2523375 182.553953,34.3159296 181.357251,34.2287849 C180.526209,34.167548 180.155801,34.6174033 180.032332,35.2368375 C179.754526,36.6405743 179.445853,38.0819954 179.707038,39.4998638 C180.24128,42.4133243 181.046204,44.5095085 184.698043,45.4633901 C186.450355,45.9226664 188.245408,45.5929296 190.026213,45.3150085 C192.241536,44.9687849 194.010469,43.734627 195.857758,42.6370743 C196.384877,42.3238243 196.947611,42.0317717 197.379754,41.6125349 C197.966232,41.0425612 198.25591,41.1909427 198.647687,41.8127322 C199.67818,43.4496401 200.737166,45.0700612 201.853137,46.652798 C202.24254,47.2039296 202.111948,47.5101138 201.705924,47.9293506 C200.155436,49.5309296 198.367507,50.8169033 196.448986,51.9474296 C194.713294,52.9719691 192.82564,53.6597059 190.930863,54.2650085 C189.971602,54.573548 188.895995,54.6677585 187.870251,54.8444033 C186.127436,55.145877 184.334758,55.1694296 182.596692,55.011627 C179.794891,54.7572585 177.128431,53.991798 174.70891,52.4067059 C172.158796,50.7368243 170.271142,48.5935349 169.152796,45.7884164 C168.784763,44.8651533 168.597185,43.8830085 168.502209,42.893798 C168.250521,40.2252849 168.61618,37.603877 168.984213,34.963627 C169.383114,32.109048 169.948223,29.289798 170.522829,26.4752585 C170.822005,25.0079296 171.294512,23.5453112 171.693412,22.085048 C172.486464,19.1715875 173.383991,16.2934559 175.050825,13.7568375 C176.41136,11.6818506 177.997464,9.78350853 179.927858,8.13953485 C182.705915,5.77485064 185.821137,4.13087696 189.311517,3.13931117 C191.94236,2.39269275 194.611194,2.15010064 197.360758,2.36207432 C199.984479,2.56462696 202.494227,3.03803485 204.878133,4.17562696 C208.672436,5.98682432 210.875886,8.95210064 211.412502,13.0691006 C212.027474,17.7725612 210.555341,21.9696401 207.926872,25.8110743 C205.93237,28.7268901 203.092578,30.5946138 199.880005,31.9488901 C196.726791,33.2772585 193.419242,33.8943375 190.007218,34.1322191 C188.323763,34.2499822 186.647431,34.2523375 184.966351,34.2523375 L184.966351,34.2523375 Z M185.65018,25.2999822 C188.485223,25.3753506 190.885749,25.3141138 193.24591,24.7818243 C196.733915,23.9951664 199.23654,22.1345085 200.145938,18.5356664 C201.06246,14.9062059 199.431242,12.1670349 195.974104,11.5570217 C191.018716,10.6855743 185.735659,13.6649822 183.94773,18.3425349 C183.161801,20.4057454 182.651303,22.5513901 182.071948,24.6758375 C181.938981,25.1657322 182.064825,25.3164691 182.56345,25.307048 C183.734033,25.2858506 184.906991,25.2999822 185.65018,25.2999822 L185.65018,25.2999822 Z" id="Fill-5"></path>
                    <path d="M109.97781,6.50498222 C112.06254,4.85394275 114.349095,3.63627169 116.787611,2.8684559 C119.164393,2.12183748 121.68364,2.12419275 124.191014,2.41860064 C124.986441,2.51281117 125.637028,2.95560064 126.432455,3.00741643 C126.99519,3.04274538 126.641403,3.45256117 126.529806,3.66689011 C125.843602,4.99290327 125.138403,6.30949538 124.430829,7.62844275 C123.583166,9.21117959 122.718882,10.7868506 121.880716,12.374298 C121.669393,12.7699822 121.648024,13.0172849 121.061545,12.6145349 C119.950322,11.8490743 118.594536,11.8796927 117.307607,12.1081533 C115.246621,12.4708638 113.589284,13.5919691 112.205005,15.1064033 C110.837346,16.6043506 110.257991,18.4791401 109.771237,20.3869033 C108.660014,24.7347191 107.475185,29.066048 106.613275,33.4727454 C106.176384,35.7102454 105.692005,37.9406796 105.217123,40.1711138 C104.210374,44.9099033 103.189379,49.6439822 102.196877,54.385127 C102.116147,54.7666796 101.968934,54.877377 101.610398,54.8750217 C98.1793791,54.8703112 94.7507346,54.8703112 91.3197156,54.8750217 C90.8780758,54.8750217 90.8020948,54.7831664 90.9065687,54.2979822 C91.4645545,51.7425217 92.0890237,49.203548 92.4831754,46.6127585 C92.6446351,45.5505349 93.0340379,44.5024427 93.2548578,43.430798 C94.1143934,39.2619822 95.0831517,35.1167191 95.8975735,30.936127 C96.5742796,27.4738901 97.4005735,24.0422717 98.1698815,20.6012322 C98.6566351,18.4320349 99.1600095,16.258127 99.2692322,14.0371138 C99.3547109,12.3248375 98.7634834,10.6997059 98.1817536,9.10519275 C97.6688815,7.7014559 97.6760047,7.35287696 99.0080474,6.79467959 C101.451313,5.77014011 103.500427,4.11439011 105.79173,2.85432432 C107.021673,2.1783638 107.484682,2.25137696 108.420199,3.36541643 C109.19663,4.28632432 109.652517,5.35090327 109.97781,6.50498222" id="Fill-6"></path>
                </g>
            </g>
        </g>
    </g>
</svg>